<svg xmlns="http://www.w3.org/2000/svg" xmlns:xlink="http://www.w3.org/1999/xlink" viewBox="0 0 55 77" fill="#fff" fill-rule="evenodd" stroke="#000" stroke-linecap="round" stroke-linejoin="round"><use xlink:href="#D" x=".5" y=".5"/><defs><radialGradient id="A" cx="50%" cy="50%" r="51%" fx="50%" fy="50%"><stop offset="0%" stop-color="#e4c3a8"/><stop offset="100%" stop-color="#977348"/></radialGradient><linearGradient id="B" x1="98.37%" y1="7.55%" x2="20.61%" y2="111.67%"><stop offset=".6%" stop-color="#bea488"/><stop offset="100%" stop-color="#d8b7a3"/></linearGradient><linearGradient id="C" x1="101.04%" y1="44.04%" x2="-1.58%" y2="54.81%"><stop offset="0%" stop-color="#bd9b7b"/><stop offset="31.5%" stop-color="#d2a97c"/><stop offset="70.8%" stop-color="#e3c188"/><stop offset="100%" stop-color="#ebd198"/></linearGradient></defs><symbol id="D" overflow="visible"><g stroke="none" fill-rule="nonzero"><path d="M39.686 3.556a1.57 1.57 0 0 1-.06.255c-.03.09-.075.165-.12.24a1.29 1.29 0 0 1-.315.39c-.51.48-1.365.72-2.355.69-.555-.015-1.14-.12-1.74-.315-1.89-.615-3.15-1.98-3.015-3.165l-1.095 9.51c-.135 1.185 1.125 2.55 3.015 3.18.6.195 1.185.3 1.74.315.975.03 1.83-.225 2.355-.69.12-.12.225-.24.315-.39.046-.077.086-.157.12-.24.03-.075.045-.165.06-.255 0-.03.015-.045.015-.075l1.095-9.51c-.015.015-.015.045-.015.06h0z" fill="#6d5746"/><path d="M39.461 2.416c.255.48.3.96.15 1.395-.3.885-1.425 1.365-2.775 1.335-.555-.015-1.14-.12-1.74-.315-2.055-.675-3.375-2.235-2.94-3.495.315-.885 1.425-1.365 2.79-1.335.555.015 1.14.12 1.74.315 1.29.42 2.325 1.215 2.775 2.1z" fill="url(#A)"/><path d="M46.271 6.901c-.03.165-.075.33-.165.48 0 .015-.015.03-.015.045-.075.135-.18.255-.3.375-.435.405-1.14.6-1.935.585-.735-.015-1.575-.225-2.385-.63-1.2-.6-2.115-1.515-2.43-2.46l-1.095 9.48c.3.945 1.23 1.86 2.415 2.46.81.405 1.635.615 2.385.63.81.015 1.5-.18 1.935-.585a1.5 1.5 0 0 0 .3-.375c0-.015.015-.03.015-.045a1.82 1.82 0 0 0 .165-.48c0-.03 0-.045.015-.075l1.095-9.495v.09h0z" fill="#6d5746"/><path d="M43.751 3.497c1.935.975 2.985 2.7 2.355 3.87-.36.675-1.215 1.02-2.25.99-.735-.015-1.575-.225-2.385-.63-1.2-.6-2.115-1.515-2.43-2.46-.18-.525-.15-1.005.06-1.41.36-.675 1.23-1.005 2.265-.975.75.015 1.575.225 2.385.615z" fill="url(#A)"/><path d="M11.171 64.787c-4.41 5.1-11.985 3.99-11.1 10.215 21.285.105 28.875-8.445 28.875-8.445s20.88-12.885 23.535-23.1-2.67-28.425-7.545-29.31-29.355 45.54-33.765 50.64h0z" fill="url(#B)"/><path d="M14.172 21.857c2.67-3.975 10.755-13.275 22.56-9.945 6.99 3.36 11.16 7.185 12.51 10.605 1.365 3.42 2.31 9.075 1.755 14.145s-2.73 9.885-7.05 14.355c-4.32 4.455-7.725 8.085-15 11.865-2.805 1.38-7.755 4.83-14.52 2.76-5.04-1.62-8.28-6.09-8.925-9.45-.48-3.24 1.23-5.235.165-7.425-1.845-3.825-1.845-4.62 1.26-7.62 1.695-1.65 1.335-6.225 2.175-8.925.975-3.195 2.4-6.39 5.07-10.365h0z" fill="url(#C)"/><g fill="#876d58"><path d="M6.701 48.511c-.045 0-.09-.03-.09-.075-.015-.06.015-.105.06-.12 3.615-1.08 3.51-5.205 3.51-5.25 0-.06.045-.105.09-.105.06 0 .105.045.105.09s.105 4.32-3.66 5.445c0 .015 0 .015-.015.015zm-1.41-1.035c-.09 0-.135 0-.15-.015-.06-.015-.09-.06-.09-.105s.045-.09.105-.09h.015c.015 0 1.395.165 2.625-1.62.03-.045.09-.06.135-.03s.06.09.03.135c-1.08 1.575-2.265 1.725-2.67 1.725h0zm5.955.045c-.015 0-.045 0-.06-.015-.045-.03-.045-.105-.015-.135.015-.015 1.26-1.62 1.665-3.51.27-1.215-.135-2.385-.585-3.09-.3-.465-.66-.78-.975-.84-.27-.06-.615-.045-.975-.045-.855 0-1.8 0-2.355-.615-.03-.045-.03-.105 0-.135.045-.03.105-.03.135 0 .495.54 1.41.54 2.205.54.375 0 .735 0 1.02.06.36.075.765.405 1.095.93.615.945.84 2.16.615 3.24-.42 1.935-1.695 3.585-1.695 3.6-.015 0-.045.015-.075.015h0zm-1.2-5.565c-.03 0-.075-.015-.09-.06-.66-1.395-2.325-1.575-2.34-1.575-.06 0-.09-.06-.09-.105s.045-.09.105-.09h.015c.075 0 1.785.195 2.505 1.695.03.045 0 .105-.045.135h-.06 0zm23.13 10.17c-.015 0-.045-.015-.06-.015-.045-.03-.045-.105-.015-.135 7.44-9.345 10.08-17.25 7.815-23.535-3.09-8.58-14.445-11.055-14.565-11.07-.06-.015-.09-.06-.075-.12s.06-.09.12-.075c.12.03 11.58 2.52 14.715 11.205 2.28 6.345-.36 14.325-7.845 23.73-.03 0-.06.015-.09.015h0zm-2.805.57c-.015 0-.045-.015-.06-.015-.045-.03-.045-.105-.015-.135 7.32-9.18 9.915-16.89 7.695-22.89-2.925-7.935-13.425-10.065-13.53-10.095-.045 0-5.295-.735-8.19-.015-.06.015-.105-.015-.12-.075s.015-.105.075-.12c2.925-.72 8.22 0 8.265.015.12.015 10.725 2.175 13.68 10.215 2.235 6.075-.36 13.83-7.74 23.085 0 .015-.03.03-.06.03zm10.95-7.245c-.015 0-.03 0-.045-.015-.045-.03-.075-.09-.045-.135 3.63-7.605 4.23-14.145 1.755-19.425-3.585-7.635-12.465-9.96-12.555-9.975-.06-.015-6.87-1.395-9.51-.66-.045.015-.105-.015-.12-.075s.015-.105.075-.12c2.685-.75 9.33.6 9.615.66.09.03 9.075 2.37 12.69 10.095 2.505 5.34 1.92 11.925-1.755 19.59a.13.13 0 0 1-.105.06zm-22.935-28.35c-.045 0-.075-.03-.09-.06-.015-.045.015-.105.06-.135 1.635-.57 6.21-.135 6.405-.12.06 0 .09.06.09.105 0 .06-.045.09-.105.09-.045 0-4.725-.435-6.315.12h-.045 0zm-1.83 47.055c-4.11 0-7.05-1.155-7.095-1.17s-.075-.075-.06-.135c.015-.045.075-.075.135-.06.09.03 8.685 3.405 17.085-1.515 7.56-4.425 13.59-9.96 17.895-16.455 4.785-7.17 3.81-15.675.735-20.925-2.94-5.01-7.89-10.695-20.175-10.695-.45 0-.915.015-1.395.03-.06.015-.105-.045-.105-.09 0-.06.045-.105.09-.105 13.41-.45 18.675 5.535 21.75 10.785 3.105 5.31 4.08 13.905-.735 21.135-4.335 6.51-10.38 12.075-17.97 16.515-3.555 2.085-7.17 2.685-10.155 2.685h0zm.06-1.005c-.045 0-.09-.045-.105-.09 0-.06.03-.105.09-.105 12.795-.99 23.385-15.9 23.49-16.05.03-.045.09-.06.135-.03s.06.09.03.135c-.09.165-10.74 15.15-23.64 16.14h0 0zm5.97-3.225c-.045 0-.075-.03-.09-.075-.015-.06.015-.105.06-.12 3.495-1.08 9.375-6.795 9.435-6.855.045-.045.105-.045.135 0 .045.045.045.105 0 .135-.06.06-5.955 5.805-9.51 6.9 0 0-.015.015-.03.015h0zm-8.835 1.95a18.6 18.6 0 0 1-2.175-.12c-2.49-.3-4.02-1.005-4.035-1.02-.045-.03-.075-.09-.045-.135s.075-.075.135-.045c.015 0 1.515.705 3.99 1.005 2.28.27 5.865.225 10.02-1.47.06-.015.105 0 .135.06.015.045 0 .105-.06.135-3.06 1.23-5.805 1.59-7.965 1.59h0zm1.83 1.215c-.225-.015-5.205-.465-6.99-1.215-.045-.015-.075-.075-.06-.135.015-.045.075-.075.135-.06 1.755.735 6.87 1.185 6.915 1.2.06 0 .09.06.09.105 0 .06-.045.105-.09.105h0zm-4.125-3.525c-3.03 0-4.74-.78-4.77-.78-.045-.03-.075-.09-.045-.135s.09-.075.135-.045c.03.015 3.135 1.41 8.37.405 5.25-1.005 11.94-6.09 12-6.15.075-.075 8.46-8.445 8.61-15.87.135-6.345-1.965-10.41-6.405-12.405-3.555-1.605-11.895-3.915-15.15-2.655-.045.015-.105 0-.135-.06-.015-.045 0-.105.06-.135 3.3-1.29 11.715 1.05 15.3 2.655 4.53 2.025 6.66 6.15 6.525 12.585-.09 3.93-2.445 8.07-4.41 10.86-2.13 3.015-4.26 5.13-4.275 5.16-.075.06-6.795 5.175-12.09 6.195a19.61 19.61 0 0 1-3.72.375zm18.87-28.41c-.032.001-.061-.017-.075-.045-6.09-7.725-17.55-6.585-17.67-6.57-.045 0-.105-.03-.105-.09s.03-.105.09-.105c.12-.015 11.685-1.17 17.835 6.645.03.045.03.105-.015.135-.015.03-.045.03-.06.03h0zm-12.6 25.725c-.045 0-.075-.015-.09-.06s0-.105.045-.135c5.505-2.43 12.405-7.05 13.935-15.33.915-4.95-.54-8.925-.555-8.955-.015-.045 0-.105.06-.135.06-.015.105 0 .135.06.015.045 1.5 4.05.57 9.06-.855 4.62-3.99 11.055-14.04 15.48-.03.015-.045.015-.06.015h0zm-6.48 1.395c-2.76 0-5.175-.555-5.22-.57-.06-.015-.09-.06-.075-.12s.06-.09.12-.075 5.955 1.365 9.81-.18c.045-.015.105 0 .135.06.015.045 0 .105-.06.135-1.425.57-3.12.75-4.71.75zm-3.315-1.305c-.99 0-1.71-.09-2.025-.21-.045-.015-.075-.075-.06-.135.015-.045.075-.075.135-.06 1.35.51 10.23.27 16.545-4.545 4.95-3.78 7.125-9.3 6.45-16.41-1.26-2.505-4.125-5.805-10.59-7.365-3.885-.93-7.275-.78-7.32-.78h0c-.06 0-.105-.045-.105-.09 0-.06.045-.105.09-.105.03 0 3.45-.15 7.365.78 6.57 1.575 9.465 4.935 10.74 7.485l.015.03c.675 7.185-1.515 12.78-6.525 16.605s-11.4 4.8-14.715 4.8h0zm12.285-5.925c-.032.001-.061-.017-.075-.045-.03-.045-.015-.105.03-.135.075-.06 7.995-5.835 5.94-12.405-1.755-5.07-6.045-6.87-6.09-6.885s-5.325-2.055-10.47-.75c-.06.015-.105-.015-.12-.075s.015-.105.075-.12c5.205-1.305 10.545.735 10.59.765.045.015 4.41 1.845 6.195 7.02 2.1 6.705-5.94 12.57-6.015 12.63h-.06 0zm2.91-10.365h0c-.028.001-.055-.01-.075-.03s-.031-.047-.03-.075c.285-4.83-3.96-7.155-4.005-7.17s-5.52-1.875-10.185.3c-.045.015-.105 0-.135-.045s0-.105.045-.135c4.74-2.22 10.305-.33 10.35-.3.06.03 4.425 2.415 4.125 7.365 0 .045-.03.09-.09.09zM5.561 55.171c-.045 0-.09-.045-.105-.09 0-.06.03-.105.09-.105.135-.015 13.365-1.365 17.325-12.825.015-.06.075-.075.12-.06s.075.075.06.12c-3.99 11.58-17.355 12.945-17.49 12.96h0 0zm.78.975c-.435 0-.675-.03-.675-.03-.06 0-.09-.06-.09-.105s.045-.09.105-.09h.015c.06 0 6.135.57 13.455-4.575.045-.03.105-.015.135.03s.015.105-.03.135c-3.855 2.715-7.335 3.825-9.585 4.275-1.5.3-2.655.36-3.33.36h0zm-.69-2.205c-.037 0-.072-.02-.091-.053s-.019-.072 0-.105.053-.053.091-.053c5.28-.105 11.16-3.54 13.665-8.025 1.86-3.315 1.185-5.82.285-7.335-3.75-6.405-11.07-2.85-11.145-2.82-.045.03-.105 0-.135-.045s0-.105.045-.135c.015-.015 1.905-.945 4.245-1.05 2.16-.105 5.16.495 7.17 3.93 1.305 2.22 1.2 4.89-.285 7.545-2.55 4.545-8.505 8.04-13.845 8.145h0 0zm6.51-3.24c-.032.001-.061-.017-.075-.045-.03-.045-.015-.105.03-.135 2.655-1.875 5.685-5.94 5.955-9.255.105-1.38-.255-2.505-1.095-3.33-1.65-1.62-3.9-1.755-5.505-1.59-1.74.18-3.105.75-3.12.75-.045.03-.105 0-.135-.06-.015-.045 0-.105.06-.135.015 0 1.41-.585 3.18-.765 2.355-.24 4.305.33 5.655 1.65.885.87 1.275 2.04 1.17 3.495-.21 2.685-2.535 6.93-6.03 9.405-.045.015-.06.015-.09.015h0z"/><path d="M5.666 52.546c-.037 0-.072-.02-.091-.053s-.019-.073 0-.105.053-.053.091-.053h0 0c.12 0 2.835-.015 5.025-1.11.045-.03.105 0 .135.045s0 .105-.045.135c-2.235 1.125-4.98 1.14-5.115 1.14h0zm.39-1.2c-.045 0-.09-.03-.105-.09s.03-.105.09-.12 5.265-.9 7.8-4.485c1.245-1.77 1.65-3.9 1.2-6.345-.015-.06.03-.105.075-.12.06-.015.105.03.12.075.465 2.505.045 4.68-1.23 6.495-2.58 3.66-7.875 4.56-7.935 4.575 0 .015-.015.015-.015.015h0zm8.64-12.06c-.045 0-.075-.03-.09-.06s-1.17-2.595-6.51-.585c-.045.015-.105 0-.135-.06-.015-.045 0-.105.06-.135 5.535-2.085 6.72.57 6.765.69.015.045 0 .105-.06.135 0 .015-.015.015-.03.015h0zm-6.03 4.695h-.03c-.06-.015-.09-.075-.075-.12.21-.765.15-1.38-.165-1.83-.495-.705-1.485-.765-1.485-.78-.06 0-.09-.045-.09-.105s.045-.09.105-.09h0c.045 0 1.08.075 1.635.855.36.51.42 1.17.195 1.995-.015.045-.045.075-.09.075h0zm-2.985 2.34c-.15 0-.33-.03-.54-.105-.06-.015-.075-.075-.06-.12s.075-.09.12-.06c.345.105.615.12.78.015.135-.075.15-.195.15-.195.015-.06.06-.09.12-.075s.09.06.075.12c0 .015-.045.21-.255.33a.75.75 0 0 1-.39.09h0zm1.29-1.83c-.015 0-.03 0-.045-.015-.045-.03-.075-.075-.045-.135.225-.51.27-.93.105-1.26-.24-.48-.825-.615-.825-.615-.06-.015-.09-.06-.075-.12s.06-.09.12-.075c.03 0 .675.165.96.72.195.39.165.87-.09 1.44a.13.13 0 0 1-.105.06z"/></g></g></symbol></svg>