<svg xmlns="http://www.w3.org/2000/svg" xmlns:xlink="http://www.w3.org/1999/xlink" viewBox="0 0 76 60" fill="#fff" fill-rule="evenodd" stroke="#000" stroke-linecap="round" stroke-linejoin="round"><style><![CDATA[.B{stroke-linejoin:miter}.C{stroke-width:.26}.D{stroke:#674a2c}.E{stroke:#392409}.F{stroke:#77634a}.G{stroke:#533b20}.H{stroke:#725f47}.I{fill:url(#E)}.J{fill:url(#F)}.K{fill-rule:nonzero}]]></style><use xlink:href="#L" x=".5" y=".5"/><defs><linearGradient id="A" y2="50.00%" x2="99.99%" y1="50.00%" x1="-0.00%"><stop stop-color="#bea383" offset=".6%"/><stop stop-color="#d7bd9c" offset="100%"/></linearGradient><linearGradient id="B" y2="49.99%" x2="100.01%" y1="49.99%" x1="0.01%"><stop stop-color="#bea383" offset=".6%"/><stop stop-color="#d7bd9c" offset="100%"/></linearGradient><linearGradient id="C" y2="0.55%" x2="43.30%" y1="102.28%" x1="57.43%"><stop stop-color="#a58b6c" offset=".6%"/><stop stop-color="#d7bd9c" offset="53.4%"/><stop stop-color="#b69b7b" offset="100%"/></linearGradient><linearGradient id="D" y2="50.01%" x2="99.98%" y1="50.01%" x1="-0.02%"><stop stop-color="#aa9071" offset="0%"/><stop stop-color="#d7bd9c" offset="100%"/></linearGradient><linearGradient id="E" y2="50.00%" x2="100.00%" y1="50.00%" x1="-0.00%"><stop stop-color="#aa9071" offset="0%"/><stop stop-color="#d7bd9c" offset="100%"/></linearGradient><linearGradient id="F" y2="50.00%" x2="100.01%" y1="50.00%" x1="0.00%"><stop stop-color="#aa9071" offset="0%"/><stop stop-color="#d7bd9c" offset="100%"/></linearGradient><linearGradient id="G" y2="50.00%" x2="-0.00%" y1="50.00%" x1="100.00%"><stop stop-color="#aa9071" offset="0%"/><stop stop-color="#d7bd9c" offset="100%"/></linearGradient><linearGradient id="H" y2="50.00%" x2="0.01%" y1="50.00%" x1="100.00%"><stop stop-color="#aa9071" offset="0%"/><stop stop-color="#d7bd9c" offset="100%"/></linearGradient><linearGradient id="I" y2="49.99%" x2="-0.00%" y1="49.99%" x1="100.00%"><stop stop-color="#aa9071" offset="0%"/><stop stop-color="#d7bd9c" offset="100%"/></linearGradient><linearGradient id="J" y2="50.00%" x2="99.99%" y1="50.00%" x1="0.02%"><stop stop-color="#aa9071" offset="0%"/><stop stop-color="#d7bd9c" offset="100%"/></linearGradient><linearGradient id="K" y2="49.99%" x2="100.00%" y1="49.99%" x1="-0.00%"><stop stop-color="#aa9071" offset="0%"/><stop stop-color="#d7bd9c" offset="100%"/></linearGradient></defs><symbol id="L" overflow="visible"><g stroke="#967d5f" class="B C K"><path d="M57.958 51.467s2.704-1.2 3.105-2.303 1.099-1.901 2.5-3.204l3.706-3.705c.501-.5.401-1.803.401-1.803l-3.507.3-6.408 6.81.204 3.904z" fill="url(#A)"/><path d="M57.856 49.967l3.507-2.906c.5-.601.301-.601.799-1.301s2.903-2.302 3.506-2.904.599-2.104.599-2.104l-5.407 1.502-2.403 3.904-.602 3.807z" fill="url(#B)"/><path d="M34.095.089c3.032-.232 7.467 0 10.849.583 1.303.224 3.94.489 6.69 1.468 4.387 1.562 5.094 2.031 9.06 4.014s8.749 7.532 11.084 11.268 2.683 7.631 2.8 11.834-.702 6.065-1.518 7.466-2.031 3.968-3.666 4.318-6.015.233-6.95 1.398-2.45 2.568-3.032 3.383-.767 1.72-.767 3.001.299 4.467-.166 5.752c-.467 1.28-1.051 1.866-1.868 2.215s-1.282.932-3.149 1.399-5.799.551-8.249.551-9.134-.317-11.35-.666-9.333-2.92-11.668-3.849c-2.333-.936-11.8-5.619-12.5-6.201S8.311 46.173 7.84 45.94c-.463-.234-1.045-.636-1.63-1.452a87.75 87.75 0 0 1-2.683-4.148c-.7-1.168-2.569-5.719-3.267-8.168s.232-4.75.232-7.436c0-2.681 3.832-8.448 4.65-8.914s1.534-2.552 2.697-3.6c1.174-1.05 4.608-4.318 6.009-5.134s4.832-3.035 8.099-4.086S31.065.32 34.099.088z" fill="url(#C)"/></g><g fill="none"><path d="M67.037 33.178c-.268 0-.401.267-.535.733s-.267 1.737-.2 1.403-.134.066-.266.533-.402 2.403 0 2.471.6-.401.934-.868.332-4.272.067-4.272z" class="B C D"/><g stroke-linecap="butt"><path d="M55.255 57.475s-.301-2.903 3.502-4.103m-5.605 4.706s.498-5.407 5.505-5.709m-8.209 6.008s-.4-1.903-.101-2.404.601-1.6 1.203-1.802.4-.099 1-.4.4-1.101.901-1.403 1.703-.901 2.905-1.102 2.3.299 2.3.299m-9.412 7.01l-1.001-1.903c-.6-1.199 2.404-5.907 6.61-7.209 1.901-.398 3.803.203 3.803.203m-11.013 2.901c-3.103 2.907 0 5.91 0 5.91" class="B C F"/><path d="M51.85 48.863s1.977-2.283 6.795-.041" class="B C D"/><path d="M45.04 54.573c0 0 0 2.101 1.403 3.204" class="B C F"/><path d="M46.842 48.666s6.807-6.61 12.014-1.502m-13.415 2.901c-.901.401-1.402 2.705-1.402 2.705" class="B C D"/><path d="M43.638 53.972s-.199 2.103 2.303 4.605m-2.203-9.91s-4.005 2.3-.401 8.309m-1.2-9.714s-4.906 6.809 1.803 11.215m-5.309-7.911s-.2 3.807 3.705 7.912" class="B C F"/><path d="M43.04 43.66s-3.004 1.901-3.706 4.404m1.104-3.406s-2.707 2.904-2.204 4.106" class="B C D"/><path d="M41.637 42.256s-10.113 6.308-.701 16.223" class="B C F"/><path d="M39.435 42.559s-2.704 2.5-3.405 4.605m3.004-6.208s-4.704 3.903-4.105 9.21m5.306-9.91s4.706-3.003 6.509-2.702m6.506 1.699s5.607-.5 6.908 5.206m-3.203-3.404c-1.801-1.5-5.004-1-5.004-1m3.404 1s3.603 1.002 4.306 4.305m-4.405-3.603s3.401 1.001 3.901 2.303m-13.014.2s9.011-5.706 13.115 1.601m-7.708-1.9s5.004-1.502 7.508 2.5M54.45 35.749s5.91.7 7.01 6.81m-5.006-6.81s5.105 1.601 5.105 6.81m-7.91-8.513s3.207.802 4.909 2.204m-2.303-2.304s5.206.603 5.807 8.812m-4.406-9.113c-3.505-2.502-8.009-2.502-8.009-2.502m-5.306-1.401s7.61-.803 13.215 3.003" class="B C D"/><path d="M62.162 39.252c-1.703-4.805-3.205-5.104-4.106-5.706" class="B C F"/><path d="M54.252 30.141c0 0 2.302.5 3.403 1.603m5.308 7.508c-.601-4.504-4.405-6.906-4.405-6.906" class="B C D"/><path d="M40.035 58.277c-1.704-1.201-2.559-3.004-2.559-3.004m-3.049-2.504s3.103 5.006 4.406 5.708m-5.008-4.506s1.604 2.903 3.505 4.004m-6.509-5.804s3.305 5.204 4.608 5.907m-1.702-.3c-1.266-1.532-3.557-3.792-5.033-7.241-1.012-2.363-1.637-5.606-1.287-8.282.483-3.636 2.359-7.338 8.521-10.509" class="B C F"/><path d="M37.132 32.645c-10.914 3.503-9.313 14.918-9.313 14.918" class="B C H"/><path d="M36.03 33.746l-3.707 2.437" class="B C E"/><path d="M38.233 33.446c-3.205.702-6.242 3.871-6.242 3.871" class="B C H"/><path d="M41.537 33.144c-3.706.5-7.478 3.17-7.478 3.17" class="B C E"/><path d="M39.034 34.646c-1.502-.098-5.406 2.704-5.406 2.704m6.906-2.803c-2.502.098-6.607 3.971-6.607 3.971" class="B C H"/><path d="M31.023 56.174l-2.603-4.003m1.802 4.704s-4.005-5.407-4.406-7.109" class="B C F"/><path d="M49.746 28.84c-8.209-1.102-12.316.999-12.316.999" class="B C H"/><path d="M35.229 28.44c-3.505.4-7.513 4.704-7.513 4.704" class="B C E"/><path d="M31.023 28.939c-4.105 2.404-6.91 7.209-6.91 7.209" class="B C G"/><path d="M28.42 33.945l-.799 1.204" class="B C E"/><path d="M23.815 37.151c-.967.434-1.202 4.107-1.202 4.107" class="B C D"/><path d="M37.932 27.337s9.512-2.404 16.621.702" class="B C G"/><path d="M54.45 28.74c0 0 9.514 2.103 9.215 12.817" class="B C F"/><path d="M54.152 27.036s11.014 4.507 9.915 13.316m.598-.597c.666-3.875-.55-5.66-2.281-7.621-2.69-3.053-6.63-5.098-6.63-5.098m.8-.801s3.073 1.035 6.141 5.274" class="B C D"/><path d="M24.916 49.666c0 0 1.101 2.202 2.404 3.705" class="B C F"/><path d="M40.737 23.033s10.012-.803 14.417 2.002" class="B C E"/><path d="M35.329 23.732s3.601-2.204 12.116-1.603" class="B C G"/><path d="M33.627 23.232s2.704-2.604 16.72-1.704" class="B C E"/><path d="M23.815 48.765c0 0 4.303 7.109 4.808 7.61" class="B C F"/><path d="M21.612 31.243s-1.603 2.101-1.803 2.906" class="B C E"/><path d="M23.414 27.839s-2.904 2.802-3.805 4.906m1.5-3.704s-1.401 1.7-1.801 3.103M54.352 20.33l2.403 1" class="B C D"/><path d="M18.208 48.065c0 0 1.001 1.903 2.101 2.602s3.005 3.906 3.005 3.906" class="B C F"/><path d="M29.221 18.527s10.213-2.302 17.721-1.403m-1.801-1.201s2.135-.034 3.203.3" class="B C D"/><path d="M60.227 22.699c-3.17-2.47-7.375-3.972-7.375-3.972" class="B C G"/><path d="M25.014 19.228s5.709-2.704 12.415-3.204" class="B C D"/><path d="M29.221 16.627s4.204-1.604 7.608-1.404" class="B C E"/><path d="M21.811 20.028s2.904-2.302 6.109-3.503" class="B C D"/><path d="M16.705 22.732s1.311-1.589 3.611-3.094c1.008-.658 2.363-.978 3.611-1.686 3.938-2.241 8.776-4.378 12.601-4.132" class="B C G"/><path d="M15.603 21.829s.3-.799 2.104-2.003 9.614-5.706 11.914-6.006l2.305-.3" class="B C D"/><path d="M18.106 17.927s6.411-4.407 13.819-5.707" class="B C G"/><path d="M17.907 17.225s2.504-2.404 3.803-2.804" class="B C D"/><path d="M35.228 11.517s7.108-1.201 12.516.202" class="B C G"/><path d="M37.633 10.316s7.408-.7 11.012.803m3.206 1.802s16.62 7.107 17.221 18.621m-49.263 9.613c1.003 7.409 7.71 14.818 7.71 14.818m-6.007-11.011l.199 1.499 1.401 2.704c.303.503.505.702 1.103 1.402s4.006 5.809 4.006 5.809m-8.412-12.318s2.305 5.909 4.808 8.913M19.41 44.86s3.904 8.213 6.608 10.713" class="B C F"/><path d="M21.611 50.166c-1.401-1.602-3.103-6.107-3.103-6.107" class="B C E"/><path d="M21.311 53.671c-1.602-1.404-3.805-5.407-3.805-5.407m1.502 3.505c-.526-.492-1.38-1.955-2.27-3.135-.439-.577-.885-.755-1.306-1.295a37.48 37.48 0 0 1-2.133-3.08m4.104 6.707l-2.5-3.504" class="B C F"/><path d="M15.805 50.266l-3.506-5.407" class="B C E"/><path d="M14.803 50.166s-.702-.499-.901-1.1-1.902-3.505-1.902-3.505" class="B C G"/><path d="M11.498 46.861s.801 1.403 1.602 1.805m-4.606-7.011s2.604 4.608 3.405 5.008m-.5 1.403c-1.602-1.202-4.005-5.407-4.005-5.407" class="B C D"/><path d="M9.295 44.759l-3.003-5.305c-.512-.953-.821-1.928-1.257-2.825l-1.247-2.382c-1.1-3.105-.6-5.709-.6-5.709" class="B C G"/><path d="M4.088 38.951c0 0 2.704 4.807 4.008 6.208" class="B C D"/><path d="M6.594 42.056c-2.002-2.203-4.907-10.612-4.907-10.612" class="B C E"/><path d="M3.29 34.346l-1.303-4.605" class="B C D"/><path d="M6.891 44.558c-3.301-5.807-4.005-6.808-5.807-11.814-1.401-7.209.542-9.877.542-9.877" class="B C G"/><path d="M2.587 22.431c-.7.802-.8 3.204-.8 3.204" class="B C D"/><path d="M2.788 24.834s0-1.901.698-2.704" class="B C E"/><path d="M3.69 23.334s1.501-3.906 3.304-5.407m3.004.099l3.503-3.805" class="B C D"/><path d="M6.693 19.526l4.005-4.905" class="B C G"/><path d="M15.805 12.32s4.105-3.305 8.109-4.808" class="B C D"/><path d="M18.706 11.217s3.487-4.648 16.922-6.609" class="B C E"/><path d="M28.019 5.51s4.104-1.701 5.307-1.503m-3.503-.098l3.603-1.001m-4.608-.1s3.107-.799 4.308-.601m-6.91.601s4.605-1.502 7.309-1.403m-7.282.569S34.128.104 35.029.705" class="B C G"/><path d="M39.435 3.607l2.102.1" class="B C E"/><path d="M39.335 2.407l2.001.098M37.832 4.41s8.21.4 9.011.899M39.735.904s6.608.602 7.108 1.301m5.708 1.103C46.744.205 35.628.505 35.628.505M23.013 9.414c3.704-2.402 10.614-3.602 13.717-3.503s8.511.801 9.612 1.201 2.001 1.103 2.702 1.301 4.908 1.502 6.409 2.504 4.606 2.502 7.609 5.307 6.107 7.41 6.107 7.41M21.109 10.917S29.12 6.31 37.33 6.712M26.416 9.114s4.909-2.102 7.611-1.301" class="B C D"/><path d="M21.511 11.718s7.009-3.305 10.114-3.503" class="B C E"/><path d="M36.73 7.512s4.103-.6 8.112.302m7.409 0s2.43.595 5.473 2.263c.572.313 1.165 1.051 1.766 1.409.54.322 1.092.464 1.638.83.461.306.921 1.023 1.374 1.349 1.155.832 2.272 1.725 3.265 2.658" class="B C D"/><g class="E"><path d="M48.746 7.314c0 0 2.318.501 5.327 1.962.708.345 1.456.932 2.218 1.354.697.384 1.407.587 2.115 1.009 2.9 1.73 5.768 3.945 7.494 5.986" class="B C"/><path d="M62.764 13.322l2.702 2.201" class="B C"/></g><path d="M51.014 9.817c0 0 12.148 4.003 18.057 15.317" class="B C F"/><path d="M60.561 16.225c0 0 4.204 3.184 6.984 7.523.331.511.044 1.038.342 1.579 1.451 2.632 2.459 5.564 2.186 8.42" class="B C D"/><path d="M57.957 17.424c0 0 8.911 5.509 10.412 13.317" class="B C F"/><path d="M57.656 19.228c0 0 8.511 3.002 10.413 13.516m-4.207-7.812s4.706 5.108 3.906 11.617m-3.336-4.706s1.834 2.904.833 6.809m-1.902-10.114s2.602 2.906 2.502 6.709m-2.106-7.508s2.205 2.602 2.505 5.906" class="B C D"/><path d="M64.366 27.238c0 0 2.337 2.671 2.67 5.941" class="B C F"/><path d="M66.066 38.051s-1.101 2.702-1.701 3.303m2.201-3.502s-.399 2.103-1.502 3.502" class="B C D"/><path d="M41.836 8.013c-11.714-.6-19.022 3.805-19.022 3.805" class="B C E"/><path d="M18.208 24.933s2.902-3.002 5.307-4.005" class="B C G"/><path d="M17.404 24.736s1.303-2.002 2.807-2.605" class="B C E"/><path d="M16.504 24.834s1.003-1.901 1.603-2.403" class="B C D"/><path d="M14.201 23.334c-1.001.098-3.605 4.904-3.605 4.904" class="B C E"/><path d="M13.201 23.433c-.901.3-2.304 3.805-2.304 3.805" class="B C G"/><path d="M7.491 30.74s.604-3.503 1.304-5.106m-1.905 7.812v-3.906" class="B C D"/><path d="M15.404 29.14s1.099-1.803 1.902-2.604" class="B C E"/><path d="M15.903 29.439c-1.1.901-1.899 5.007-1.899 5.007m.5 4.606s-.401-2.101.1-3.004m-4.007.401s-.6-4.306.2-5.508" class="B C D"/><path d="M11.798 38.254s-.901-4.911-.399-7.012" class="B C E"/><path d="M7.492 35.848s-1.4-2.902-1.7-4.306 0-4.205 0-4.205m1.201 11.415C4.49 34.447 3.99 31.543 3.99 31.543" class="B C D"/><path d="M4.389 31.042c0 0 .192.949.767 2.273.25.571.736 1.213 1.04 1.877 1.088 2.395 2.416 5.081 3.2 5.862" class="B C E"/><path d="M19.808 49.066c0 0 4.007 4.307 4.906 6.107" class="B C F"/></g></g><g stroke="none" class="K"><path d="M35.845 49.437c-.466 0-.466 1.751-.582 2.103s.116 1.399.814 1.983.235 1.284.701 1.749.7.701.7 0-1.632-2.565-1.517-3.384.352-2.451-.115-2.451z" fill="url(#D)"/><path d="M33.745 54.224c.448.047-.118-1.114.232-1.401s.548.653.817.115-1.965-2.459-1.751-3.502 1.917-4.552 2.335-4.666-.585.216-.584-.582 1.03-1.167 1.518-1.517-.155-.783.465-1.4 1.876-1.449 2.45-1.634.193-.047 1.25-.516 2.235-1.295 4.349-1.816 6.343-.712 7.7-.353 2.54 1.138 3.149 1.051.956.754 1.918 1.167 1.437 1.45 1.867 2.101l.998 1.516c.1.136-.266.732.12.702s.348.03.464-.467.153-2.332-.4-2.417-.247.021-.999-.967-1.477-2.111-2.651-2.217-2.055-.293-2.715-.467-.006-.358-1.868-.698-3.497-.126-5.016-.234-3.808.371-5.133.932-2.739 1.572-3.966 2.103-2.969 2.532-3.501 2.565 1.762-1.962 2.214-2.332c.457-.37 1.58-1.096 1.519-1.334s-1.133.571-2.101 1.101-1.766 1.232-2.098 1.983-1.6 3.613-1.868 3.616 1.401-3.699 2.068-4.551 2.693-2.277 3.215-2.599.743-.645 1.532-.951 2.405-1.458 3.77-1.549c1.361-.09 4.566-.106 4.698-.5s-2.259.028-3.967-.149-3.621 1.007-4.665 1.55-2.387.986-3.386 2.099-2.529 3.013-3.266 4.432-1.03 3.21-1.051 4.551.219 2.32.703 3.5 1.181 3.683 1.632 3.734z" class="I"/><path d="M34.06 36.315c.401 0-.066 1.737-.132 2.204s0 .268-.468.803-.602 2-1.201 2.468-.934 2.269-1.201 3.335-.601 1.203-.601 2.271.134 2.068.333 2.404.601.867.601 1.202.069.465-.2.599-.267.136-.734-.134-1.669-3.203-1.801-4.139-.27-4.206.064-5.138 1.27-3.604 1.87-4.407 1.469-1.6 1.733-1.6c.27 0-.599 1.133-.331 1.133s1.669-1 2.067-1z" fill="url(#D)"/><g class="J"><path d="M27.715 50.199c.205.402.736.803.94 1.202.198.4.268.936 0 1.001s-1.073-.735-1.605-1.267-.533-1.469-1.067-1.672-1.936-2.201-2.67-4.339-.334-4.136.067-5.338 1.2-3.806 1.668-4.206 1.333-1.535 1.671-1.602c.331-.067.465.135.465.4s-1.268 1.806-1.601 2.472-.399 1.737-.399 1.737 1.669-2.804 2.136-2.873.395.471.395.471.402-1.071.736-1.538 2.671-2.202 2.671-2.469-2.199 1.535-2.537 1.201c-.331-.334 1.603-1.934 2.472-2.402s2.068-.802 2.87-.736 2.602-.933 3.07-.867.867.334.935.667-.466.534-.935.333-.802-.134-1.267.402-1.135.734-1.337.6-.334.401-1.001.401-3.471 3.469-3.739 3.803-.331.535-.599 1.203-.668.334-1 1.069c-.339.734-.937 2.202-.937 2.736s.134.533.067 1.334 0 3.403 0 4.405.337 3.47.533 3.87z"/><path d="M21.978 30.508c.2-.268 3.27-4.071 3.806-4.071s1.198 0 2.333-.335 1.803-1.869 2.404-1.869 1.201-.268 1.403-.268.198-.2.401-.467c.198-.265.266-.2.599 0s.334.735.534 1.136-.201.801.134 1.001 1.601-.134 1.935 0 .535.934-.066 1.003l-1.335.134c-.399 0-.068.334-.533.6s-1.002.132-1.267.132-.136.6-.535.735-1.269 0-1.469.067.334.869-.268.869-.666.066-1.131.266c-.471.2-1.136.601-1.404.935s.064.335-.199.736c-.27.399-1.27 1.001-1.604 1.401s-.066 1.067-.333 1.4-.268.202-.803.668-1.535 2.204-1.733 3.005-.535 2.937-.535 3.939 1.001 3.803.934 4.27-.136 1.469.334 1.669.867.802.937 1.133c.064.335.399.601 0 .601s-1.605-1.401-2.138-2.136-1.469-3.401-1.801-4.538-.068-5.739-.068-6.407.735-2.338 1.001-2.604.334-.266.534-.134-.066 1.735.268 1.735.733-1.265.798-1.601c.071-.334-1.399-1-1.198-1.335s.534-.468.734-.935.532-1.134.202-1.134-.469.868-.869.868-.199-.201.002-.469z"/></g><g fill="url(#G)"><path d="M37.332 24.703c.398-.203.865-1.27.865-1.27l.601.268s.337-.601.869-.601-.333 1.134.335 1.202.532-.468 1.202-.404.665.068 1.266 0 1.068-.799 1.603-.733.467.937.735 1.001.932-.799 1.335-.733.532.934 1.199.934 1.403-.666 1.671-.6.531.868.869.937c.332.065.397-.136.665.065s.468.933.202 1.134-.068-.068-.402-.132c-.336-.07-.465 1.667-.799 1.533s-.204-1.866-.47-1.934-.467.934-.735.934-.8-1.07-1.068-1.07-.333-.132-.533.07.268 1 0 1.134-1.004-1.469-1.469-1.335.134 2.202-.401 2.202-.667-2.268-1.4-2.47-.4-.131-.669.202-.267 2.735-.936 2.735-.465-3.469-1.465-2.802c-.402.732-.137 1.669-.471 1.669s-1.667-1.136-2-1.136-.336 1.203-.667 1.067-1.002-.934-1.002-1.265.668-.401 1.069-.6z"/><path d="M58.891 29.909c.334 0-.066-.735.265-.735s2.138 2 2.538 2.336.467-.202 1.002 0 1.335 2.002 1.536 2.604.532 1.535.268 1.535-.337-.733-.67-.801-.2-.066-.664-.134-1.201-1.002-1.803-1.467-2.005-.735-2.406-1.203-.532-1.535-.8-1.869-.935-1.001-.867-1.268 1.269 1.005 1.602 1.005z"/></g><path d="M50.614 20.897c-.467.067-.535.399-.535.801s.2 1.401.467 1.467.268-.601.534-.601.469 1.47.801 1.47.668-1.603 1.201-1.535-.134 1.399.134 1.535 1.003-.801 1.201-.801 0 1.47.266 1.535.937-1.002 1.135-.87 0 1.203.267 1.335.535.136.803.136.065-.334.466-.268.868.202 1.002.733-.134 1.335.132 1.469 1.139.134 1.536.2.868 1.269 1.269 1.537.466 1.069.735 1.334.399 0 .801 0 1.332 1.403 1.602 1.469.067-1.068-.27-1.669-4.403-4.404-5.538-5.273-3.338-2.338-4.339-2.602-3.202-1.468-3.669-1.401z" fill="url(#H)"/><path d="M56.487 21.228c-.131.336.068.935.601 1.404s1.202.532 1.671.666.534 1.137.869 1.469.266.066.733.401 1.269 1.867 2.201 2.538c.935.665 1.737.064 1.804-.469s-.467-1.199-.467-1.803 0-.935-.202-1.401-.601-.801-1.134-1.335-1.803-1.268-2.068-1.268-.866-.134-.802.202.734.799.534 1.067-1.868-.535-2.269-.601-.202-.666-.467-.735c-.266-.063-.868-.463-1.003-.132z" fill="url(#I)"/><path d="M68.904 31.309c-.335.068-.268 1.003-.335 1.337s-.132-.068-.268.601 0 1.067-.132 2-1.467 4.674-2.002 4.942.269.197.669.334.465-.535.867-.535-.735.8-.2.87 2.067-.936 2.067-.936 3.672-2.47 4.406-7.81 0-7.343-.8-10.413-3.138-6.407-4.408-7.945c-1.265-1.533-5.206-5.138-6.805-6.207S56.755 4.41 55.887 4.21s-1.601-.402-2.068-.467.068-.336-.467-.534-.869-.269-1.133 0-.47 1.267-.868 1.066-.069-1.133-.535-1.399-1.869-.535-2.203-.467-.534.467-.934.6-.134-.932-.466-1-.669.132-.736.532-.333 2.27-.333 2.738.466.935.734 1.001.265-.134.335-.466.131-.803.4-.87c.799-.067.132 1.737.732 1.869s1.001-1.535 1.402-1.601.2-.268.402-.067-.402.933-.402 1.335-.266.601 0 .734 1.669-1.265 1.87-1.135c.2.135-.335 1.003-.066 1.269s.796-1.001 1.066-1.134.269.468.535.468.2-.469.399-.336-.2.803 0 1.069.735-.803 1.003-.803.199 1.136.334 1.604 1.335 1.065 1.867 1.333 1.335-.2 1.469-.6-.134-.535.266-.935.937-.467 1.202-.467-1.8 2.404-1.468 2.538 1.134-.266 1.268 0-.199 1 0 1.201.268.066.533.066 1.868-1.136 1.805-1.601c-.069-.469-.202-.867.064-.935s.336.134.535.334.335.467.402 1.203-1.001 1.534-1.202 1.733-.266.601 0 .601.801-.066 1.135-.2.799-1.067 1.135-1.001-.803.936-.733 1.402c.064.468.599.532.866.6s0 .601.268.801 1.001-.2 1.199 0-.199.934-.199 1.535 1.001.935 1.335 1.537 1.535 1.735 1.334 2.001-1.802-2.001-2.069-1.735 1.003 1.535 1.334 2.402 1.737 2.07 1.871 2.872-.2 2.404-.066 3.069 1.199 3.272 1.265 4.005-.066 3.473.2 3.539.471-2.204.737-2.136.066 3.071-.2 3.405-.268 1.001-.47 1.402-1.267 2.135-1.533 2.269 1.199-3.605.867-4.339-.666-2.868-1-2.802z" fill="url(#G)"/><path d="M41.136 1.672c-.098.2.068 1.051.099 1.861s-.064 1.577.1 1.611c.334.067.737-2.204 1.134-2.204s.402 2.272.669 2.47.267.469.532 0 .334-1.469.469-1.869.266-.666.465-.399-.132 1.668 0 1.868.87 0 1.002-.6.2-.869.2-1.47.202-1.201-.068-1.335c-.264-.132-.399.335-.665.403s-.267-.801-.468-.603-.265 1.069-.465 1.27-.401-.802-.735-.869-.267.134-.467.334-.802-.068-1.133-.068c-.337 0-.472-.8-.672-.4z" fill="url(#J)"/><path d="M33.661.805c-.269-.068-.135.064-.269.334s-.333 2.003-.065 2.336.534 1.27 1.002 1.335.667-.535.934-.535.2.602.4.869.467.334.6-.2.265-1.601.6-1.601.602.132.468.534.265 2.07.532 2.136.468-3.073.734-3.005.536.6.536.933.2 1.469.466 1.469.332-3.937.268-4.203-.333-.534-.601-.534-.936.466-1.2.534-.337-.534-.337-.534-.399-.403-.666-.201-.468.869-.535 1.201-.134.067-.399.2.202-1.135 0-1.401-.533-.401-.801-.401-.4.135-.534.402-.266 1.537-.533 1.537-.334-1.138-.6-1.203z" class="J"/><path d="M41.471 8.681c.133.334 1.734.867 2.403 1.069s3.871.2 4.873.534 4.406 1.868 4.94 2.336-.134.868.466 1.133l4.006 1.737c.535.333-.265.469.201 1.001s1.868.135 2.202-.066-.334-1.336-.6-1.403-.268 0-.601 0-2.669-2.001-3.136-2.135-1.402-1.402-1.669-1.402-.402.133-.801.133-1.936-1.067-2.338-1.133.136-.402-.401-.668-3.004-1.203-3.937-1.136-4.539-.8-5.004-.602-.736.266-.602.6z" class="I"/><path d="M36.596 13.153c-.265.068-.067 2.203.135 2.404s.267.602.8.802 1.399.066 1.737.066.269-1.467.533-1.403.467 1.604.603 2.004c.131.398.932-.4 1.133-.802s.132-1.136.066-1.335-.2-.534-.2-.802.2-.469.401-.469.332 1.672.399 2.204.467 1.069.667 1.069-.067-1.335.268-1.469.398-.067.532.266-.198.735.202.802 1.335-2.601 1.603-2.402-.268.801.132 1.133 1.136.467 1.335.268-.2-.736.068-.8.601 0 .867.332.068.668.333.668 0-.935.267-1 .069 1.067.268 1.469.599.998.667.399 1.001-2.404 1.268-2.336.134 1.936.199 2.202.202.602.402.334.735-1.335 1.201-1.335-.199 1.135-.136 1.603c.068.467.471.732.871.533s.601-.669.867-.801 0 1.734.268 1.734.666-.266.936-.266-.068 1.267.334 1.403 1.068-1.403 1.333-1.805.268-1.199.134-1.537c-.134-.331-1.533-.732-1.935-.799s-.802-1.401-1.201-1.533-1.068 0-1.402.064-.466-1.269-.668-1.469-1.068.068-1.469 0-.869-.733-1.334-.801-1.07.2-1.335.269-.334.6-.601.666-.399-.265-.6-.466-.2 0-.467 0-.2-.937-.735-.869-.266 1.602-.8 1.67-.467-1.738-1.067-1.467-.602.867-.936.867-.599-.471-.869-.471-.066.335-.533.402-.265-.532-.802-.532-1.268.866-1.536 1.267-.532-.935-.731-1.136-.401-.065-.668.069-.134.333-.201.666c-.072.335-.34.401-.608.467z" fill="url(#H)"/><path d="M2.94 19.696c-.353.431-.481.299-.768.764s-.288 1.196-.437 1.532-.77.714-.109.875 1.83-.646 2.297-1.091-.029-.779.218-1.316c.248-.532 1.608-2.257 2.079-2.294s.616.137 1.095 0 1.338-2.547 1.859-2.845 2.657-.671 3.392-.987.653-1.344 1.093-1.531.627.086.985 0 .334-.445.547-.764.299-.674.658-.549.83-.1 1.093-.437-.858-2.512-.545-2.625.437 1.118.872 1.203.434.866.985.874.816-1.288.987-1.64.056-.305-.44-.328-.196-.844-.546-.983-.799-.154-.874-.549-.07-.754.329-.874.43.687.766.983.395-.141.766.329-.273-.16 0 .656 1.663.361 1.968.437-.268-.469.218-.547.328.329.328.329.156-.134.655-.219-.137-.774-.218-1.532-.317-1.643 0-1.751.648 1.545.985 1.969.651.077 1.094 0-.225-.416.108-.545.89.064 1.312.219.171-1.041.551-1.096c.372-.055.096.168.437.656s.711.311.875 0 .128-.875.546-1.095.293.139.657.111-.164-1.52.402-1.823-.419-1.511-.73-1.459-.595 1.411-1.202 1.533-.759-1.045-.983-1.314-1.832.282-3.065.656-3.099 1.322-4.487 1.751-2.08 1.349-2.733 1.64-.554.714-1.204 1.205-1.479.672-2.517 1.531l-3.173 2.626c-.169.235.214.412-.329.874l-1.97 1.859c-.577.405-.609 1.177-1.091 1.643a7.95 7.95 0 0 0-1.205 1.531c-.179.337-1.181 1.978-1.53 2.409z" class="I"/><path d="M9.397 26.839c.6-.102 1.4 0 1.499.399s0 .902-.399 1.301-.1 1.203-.1 1.603-.202.5-.402.901-.2.601-.3 1.101-.401 0-.5.502-.501 2.202-.101 3.003.601 1.701 1.303 2.403.399 1.802 1.001 2.503c.3.35.652 1.401 1.088 2.201s.964 1.354.813 1.504c-.302.299-1.001-.502-1.2-.102s.498.901.098 1.002-2.904-3.304-2.904-3.805v-1.201c0-.398-.801-1.599-1.199-2.702s-1.001-5.307-.604-5.707c.403-.401.904-.901 1.103-1.403s0-1.301 0-1.702.201-1.702.803-1.801z" fill="url(#K)"/><g class="J"><path d="M15.404 24.633c.401 0-1.003 2.003-.601 2.003s1.303-1.202 1.803-1.102 0 1.303-.402 1.402-.602.601-.7 1.002 0 .299-.201.7-.3 0-.7.202.301 1.601 0 1.801-.702 1.003-.702 1.003l-.201 5.404.6 4.708c.1.901 1.403 2.204 1.504 2.702s-.402.702.097 1.002 1.804 2.303 1.604 2.804-1.905-2.105-2.302-2.704-.601-.3-1.003-.702-1.902-4.305-1.902-5.406l-.3-7.31c0-.5-.701-.801-1.001-.901s-.6-1.403 0-2.402 1.201-2.706 1.703-2.604-.903 2.302-.502 2.403 1.102-1.302 1.102-1.903 1.702-2.103 2.103-2.103z"/><path d="M38.631 9.015l-1.401-.5-9.814 1.701-4.603 1.603-6.108 3.403.5-.8.501-1.003 1.902-.498s2.399-.901 1.902-1.202-1.101-.3-1.902-.202-1.902.703-2.504.905-1.143.214-1.803.3-.7.5-.8.998.5.501.602 1.103-1.703.601-2.106.601-.7 1.203-.298 1.203.6.498.298 1-2.001.302-2.402.501-1.001 1.102-1.4 1.301.6-1.002.399-1.301-1.499.2-1.499.6-2.705 2.305-3.106 3.005-.2 3.403-.699 3.703-1.001-.801-1.502-.601-1.303.902-1.303 1.301-.799 2.906-.5 3.305.4.399 1.001.302c.6-.102.9-2.604 1.201-2.604s.201 1.201.298 1.603c.103.399 0 .1.403.199s.1 2.104.5 2.104.202-1.903.6-2.404 2.105-2.903 2.105-3.706.3-1.7.7-1.7-.202 1.503-.098 2.202c.098.7-.805 1.301-.905 1.702s-.302 2.502.1 2.403 1.104-2.804 1.405-3.304.701-.402 1.101-.601.6-1.301 1.4-1.702 1.001-1.101 1.402-1.199-.299-.4.302-.7 1.101-.603 1.701-.805.301.404.801.101-.299-1.101.202-1.401 1.701-1.102 2.001-1.602.302 0-.1-.601-2.001 1.101-2.402 1.101 0-1.101.501-1.101 1.801-1.602 2.199-1.701.403.098.904 0 .802-1.103 1.301-1.103 2.504-1.502 3.004-1.701.601-.701 1.101-.5-.401.398-.3.799.401.3.8.399 1.099-1.1 1.804-1.198 2.702-.603 4.204-.903l5.708-.901c1.301-.901.599.1 1.001-.4s0-1.001-.701-.601-4.808.601-5.408.4 4.106-1.001 4.908-1.001c.796-.003 2.898-.303 2.898-.303z"/></g><path d="M21.212 23.334c.599-.301 2.102-1.002 2.102-1.403s.601-.9 1.003-1.102.097.099.6.202.5-1.004 1-1.102.601.098 1.003.098.702-.901 1.199-1c.505-.101.901 0 1.303.098s2.403-.999 3.004-.899 2.204-.1 2.904 0 4.207-.901 4.808-.601 4.005.2 4.604.4 1.803.301 2.403.301-.7-.701-.5-1.202 1.3-.198 2.103 0 4.606 1.403 4.705 1.802-2.101-.5-1.9 0 3.002 1.403 3.202 1.703-.2.401-1.103.299-4.605-.901-5.105-1-.099.3-.801.199-1.001-.8-1.502-.899.401.099 0 .401-1.301 0-1.801 0-.202-.202-1.103-.401-2.803 0-3.103.298.599.901.203 1.103c-.402.2-3.507.499-4.408.701s-2.302 1.201-3.505 1.403-3.103 2.302-3.805 2.2-.096-.198-1.303-.099c-1.199.099-3.601 2.202-4.003 2.404s-.502.601-.899 1.001-.507.202-.903.1-1.501 1.101-2.002 1.702-2.504 4.605-2.102 4.706 1.302-3.003 1.702-3.003.901 1.001.799 2.104-.699 2.803-.699 3.403 0 1.201.4 1.7.3 2.804-.1 3.004-.2-.697-.4-.398.5 2.403.6 2.901 0 .702-.399.702-1.603-1.701-1.803-2.403-.1-1.702-.501-1.602-.1 2.404.201 2.705.901.1 1.001.7.302 1.703.501 2.002.8 1.002 1 1.303.5 1.3 0 1.201-1.401-1.503-1.401-2.005-.399.402-.701-.098-3.605-6.21-3.405-6.908.302-.401.603-.803 1.201-6.107.8-5.909-.702 2.705-1.101 2.705.2-4.304.7-4.604 2.204-1.403 2.404-2.004.302-2.002.903-2.202.3-.399.6-.202-1.303 2.204-.901 2.304 1.401-1.802 2.203-2.103 2.103-2.704 2.601-2.704c.505 0 .403-.7 0-.7s-2.1 1.801-2.601 2-.702.204-.702-.2.799-2.004 1.403-2.305z" class="I"/></g></symbol></svg>